<mxfile host="app.diagrams.net" modified="2021-02-13T00:53:28.985Z" agent="5.0 (X11)" etag="uodDfy7lmU_XKR7buW2H" version="14.3.1" type="github">
  <diagram id="CrPepzCUSfD-_4TTZcz4" name="Page-1">
    <mxGraphModel dx="895" dy="477" grid="1" gridSize="10" guides="1" tooltips="1" connect="1" arrows="1" fold="1" page="1" pageScale="1" pageWidth="827" pageHeight="1169" math="0" shadow="0">
      <root>
        <mxCell id="0" />
        <mxCell id="1" parent="0" />
        <mxCell id="A1FotoUGLC98LH-5cCCb-1" value="" style="endArrow=classic;html=1;" edge="1" parent="1" source="A1FotoUGLC98LH-5cCCb-18" target="A1FotoUGLC98LH-5cCCb-20">
          <mxGeometry width="50" height="50" relative="1" as="geometry">
            <mxPoint x="80" y="120" as="sourcePoint" />
            <mxPoint x="720" y="120" as="targetPoint" />
          </mxGeometry>
        </mxCell>
        <mxCell id="A1FotoUGLC98LH-5cCCb-2" value="" style="endArrow=classic;html=1;" edge="1" parent="1">
          <mxGeometry width="50" height="50" relative="1" as="geometry">
            <mxPoint x="80" y="240" as="sourcePoint" />
            <mxPoint x="720" y="240" as="targetPoint" />
          </mxGeometry>
        </mxCell>
        <mxCell id="A1FotoUGLC98LH-5cCCb-3" value="" style="endArrow=classic;html=1;" edge="1" parent="1">
          <mxGeometry width="50" height="50" relative="1" as="geometry">
            <mxPoint x="80" y="360" as="sourcePoint" />
            <mxPoint x="720" y="360" as="targetPoint" />
          </mxGeometry>
        </mxCell>
        <mxCell id="A1FotoUGLC98LH-5cCCb-5" value="Ingress" style="rounded=1;whiteSpace=wrap;html=1;verticalAlign=middle;" vertex="1" parent="1">
          <mxGeometry x="354" y="60" width="120" height="20" as="geometry" />
        </mxCell>
        <mxCell id="A1FotoUGLC98LH-5cCCb-6" value="Service to Service" style="rounded=1;whiteSpace=wrap;html=1;" vertex="1" parent="1">
          <mxGeometry x="354" y="180" width="120" height="20" as="geometry" />
        </mxCell>
        <mxCell id="A1FotoUGLC98LH-5cCCb-7" value="Service to Service" style="rounded=1;whiteSpace=wrap;html=1;" vertex="1" parent="1">
          <mxGeometry x="354" y="300" width="120" height="20" as="geometry" />
        </mxCell>
        <mxCell id="A1FotoUGLC98LH-5cCCb-8" value="" style="endArrow=classic;html=1;" edge="1" parent="1" source="A1FotoUGLC98LH-5cCCb-26" target="A1FotoUGLC98LH-5cCCb-28">
          <mxGeometry width="50" height="50" relative="1" as="geometry">
            <mxPoint x="80" y="480" as="sourcePoint" />
            <mxPoint x="370" y="480" as="targetPoint" />
          </mxGeometry>
        </mxCell>
        <mxCell id="A1FotoUGLC98LH-5cCCb-9" value="Egress" style="rounded=1;whiteSpace=wrap;html=1;" vertex="1" parent="1">
          <mxGeometry x="354" y="420" width="120" height="20" as="geometry" />
        </mxCell>
        <mxCell id="A1FotoUGLC98LH-5cCCb-10" value="External" style="shape=process;whiteSpace=wrap;html=1;backgroundOutline=1;" vertex="1" parent="1">
          <mxGeometry x="70" y="50" width="100" height="20" as="geometry" />
        </mxCell>
        <mxCell id="A1FotoUGLC98LH-5cCCb-13" value="SVC" style="shape=step;perimeter=stepPerimeter;whiteSpace=wrap;html=1;fixedSize=1;" vertex="1" parent="1">
          <mxGeometry x="120" y="100" width="80" height="40" as="geometry" />
        </mxCell>
        <mxCell id="A1FotoUGLC98LH-5cCCb-14" value="&lt;div&gt;Ingress&lt;/div&gt;&lt;div&gt;Envoy&lt;br&gt;&lt;/div&gt;" style="shape=step;perimeter=stepPerimeter;whiteSpace=wrap;html=1;fixedSize=1;" vertex="1" parent="1">
          <mxGeometry x="240" y="100" width="80" height="40" as="geometry" />
        </mxCell>
        <mxCell id="A1FotoUGLC98LH-5cCCb-15" value="" style="endArrow=classic;html=1;" edge="1" parent="1">
          <mxGeometry width="50" height="50" relative="1" as="geometry">
            <mxPoint x="80" y="120" as="sourcePoint" />
            <mxPoint x="140" y="120" as="targetPoint" />
          </mxGeometry>
        </mxCell>
        <mxCell id="A1FotoUGLC98LH-5cCCb-16" value="&amp;nbsp;&amp;nbsp; Gateway" style="shape=step;perimeter=stepPerimeter;whiteSpace=wrap;html=1;fixedSize=1;" vertex="1" parent="1">
          <mxGeometry x="360" y="100" width="80" height="40" as="geometry" />
        </mxCell>
        <mxCell id="A1FotoUGLC98LH-5cCCb-17" value="" style="endArrow=classic;html=1;" edge="1" parent="1" source="A1FotoUGLC98LH-5cCCb-14" target="A1FotoUGLC98LH-5cCCb-16">
          <mxGeometry width="50" height="50" relative="1" as="geometry">
            <mxPoint x="320" y="120" as="sourcePoint" />
            <mxPoint x="720" y="120" as="targetPoint" />
          </mxGeometry>
        </mxCell>
        <mxCell id="A1FotoUGLC98LH-5cCCb-18" value="&lt;div&gt;Virtual&lt;/div&gt;&lt;div&gt;Service&lt;br&gt;&lt;/div&gt;" style="shape=step;perimeter=stepPerimeter;whiteSpace=wrap;html=1;fixedSize=1;" vertex="1" parent="1">
          <mxGeometry x="480" y="100" width="80" height="40" as="geometry" />
        </mxCell>
        <mxCell id="A1FotoUGLC98LH-5cCCb-19" value="" style="endArrow=classic;html=1;" edge="1" parent="1" source="A1FotoUGLC98LH-5cCCb-16" target="A1FotoUGLC98LH-5cCCb-18">
          <mxGeometry width="50" height="50" relative="1" as="geometry">
            <mxPoint x="440" y="120" as="sourcePoint" />
            <mxPoint x="720" y="120" as="targetPoint" />
          </mxGeometry>
        </mxCell>
        <mxCell id="A1FotoUGLC98LH-5cCCb-20" value="Destination Rule" style="shape=step;perimeter=stepPerimeter;whiteSpace=wrap;html=1;fixedSize=1;" vertex="1" parent="1">
          <mxGeometry x="600" y="100" width="80" height="40" as="geometry" />
        </mxCell>
        <mxCell id="A1FotoUGLC98LH-5cCCb-21" value="&lt;div&gt;Target&lt;/div&gt;&lt;div&gt;SVC&lt;/div&gt;" style="shape=step;perimeter=stepPerimeter;whiteSpace=wrap;html=1;fixedSize=1;" vertex="1" parent="1">
          <mxGeometry x="720" y="100" width="80" height="40" as="geometry" />
        </mxCell>
        <mxCell id="A1FotoUGLC98LH-5cCCb-22" value="" style="endArrow=classic;html=1;" edge="1" parent="1">
          <mxGeometry width="50" height="50" relative="1" as="geometry">
            <mxPoint x="680" y="119.5" as="sourcePoint" />
            <mxPoint x="740" y="119.5" as="targetPoint" />
          </mxGeometry>
        </mxCell>
        <mxCell id="A1FotoUGLC98LH-5cCCb-23" value="" style="endArrow=classic;html=1;" edge="1" parent="1">
          <mxGeometry width="50" height="50" relative="1" as="geometry">
            <mxPoint x="200" y="119.5" as="sourcePoint" />
            <mxPoint x="260" y="119.5" as="targetPoint" />
          </mxGeometry>
        </mxCell>
        <mxCell id="A1FotoUGLC98LH-5cCCb-24" value="Pod" style="shape=step;perimeter=stepPerimeter;whiteSpace=wrap;html=1;fixedSize=1;" vertex="1" parent="1">
          <mxGeometry x="120" y="460" width="80" height="40" as="geometry" />
        </mxCell>
        <mxCell id="A1FotoUGLC98LH-5cCCb-25" value="" style="endArrow=classic;html=1;" edge="1" parent="1" target="A1FotoUGLC98LH-5cCCb-24">
          <mxGeometry width="50" height="50" relative="1" as="geometry">
            <mxPoint x="80" y="480" as="sourcePoint" />
            <mxPoint x="720" y="480" as="targetPoint" />
          </mxGeometry>
        </mxCell>
        <mxCell id="A1FotoUGLC98LH-5cCCb-26" value="&lt;div&gt;Service&lt;/div&gt;&lt;div&gt;Entry&lt;br&gt;&lt;/div&gt;" style="shape=step;perimeter=stepPerimeter;whiteSpace=wrap;html=1;fixedSize=1;" vertex="1" parent="1">
          <mxGeometry x="240" y="460" width="80" height="40" as="geometry" />
        </mxCell>
        <mxCell id="A1FotoUGLC98LH-5cCCb-27" value="" style="endArrow=classic;html=1;" edge="1" parent="1" source="A1FotoUGLC98LH-5cCCb-24" target="A1FotoUGLC98LH-5cCCb-26">
          <mxGeometry width="50" height="50" relative="1" as="geometry">
            <mxPoint x="200" y="480" as="sourcePoint" />
            <mxPoint x="720" y="480" as="targetPoint" />
          </mxGeometry>
        </mxCell>
        <mxCell id="A1FotoUGLC98LH-5cCCb-28" value="&amp;nbsp;&amp;nbsp; Gateway" style="shape=step;perimeter=stepPerimeter;whiteSpace=wrap;html=1;fixedSize=1;" vertex="1" parent="1">
          <mxGeometry x="360" y="460" width="80" height="40" as="geometry" />
        </mxCell>
        <mxCell id="A1FotoUGLC98LH-5cCCb-29" value="&lt;div&gt;Virtual&lt;/div&gt;&lt;div&gt;Service&lt;br&gt;&lt;/div&gt;" style="shape=step;perimeter=stepPerimeter;whiteSpace=wrap;html=1;fixedSize=1;" vertex="1" parent="1">
          <mxGeometry x="480" y="460" width="80" height="40" as="geometry" />
        </mxCell>
        <mxCell id="A1FotoUGLC98LH-5cCCb-30" value="&lt;div&gt;Destination&lt;/div&gt;&lt;div&gt;Rule&lt;br&gt;&lt;/div&gt;" style="shape=step;perimeter=stepPerimeter;whiteSpace=wrap;html=1;fixedSize=1;" vertex="1" parent="1">
          <mxGeometry x="600" y="460" width="80" height="40" as="geometry" />
        </mxCell>
        <mxCell id="A1FotoUGLC98LH-5cCCb-31" value="" style="endArrow=classic;html=1;entryX=0;entryY=0.5;entryDx=0;entryDy=0;" edge="1" parent="1">
          <mxGeometry width="50" height="50" relative="1" as="geometry">
            <mxPoint x="440" y="479.92" as="sourcePoint" />
            <mxPoint x="500" y="479.92" as="targetPoint" />
          </mxGeometry>
        </mxCell>
        <mxCell id="A1FotoUGLC98LH-5cCCb-32" value="" style="endArrow=classic;html=1;entryX=0;entryY=0.5;entryDx=0;entryDy=0;" edge="1" parent="1">
          <mxGeometry width="50" height="50" relative="1" as="geometry">
            <mxPoint x="560" y="479.92" as="sourcePoint" />
            <mxPoint x="620" y="479.92" as="targetPoint" />
          </mxGeometry>
        </mxCell>
        <mxCell id="A1FotoUGLC98LH-5cCCb-33" value="" style="endArrow=classic;html=1;entryX=0;entryY=0.5;entryDx=0;entryDy=0;" edge="1" parent="1">
          <mxGeometry width="50" height="50" relative="1" as="geometry">
            <mxPoint x="680" y="479.92" as="sourcePoint" />
            <mxPoint x="740" y="479.92" as="targetPoint" />
          </mxGeometry>
        </mxCell>
        <mxCell id="A1FotoUGLC98LH-5cCCb-34" value="&lt;div&gt;External&lt;/div&gt;&lt;div&gt;Target&lt;/div&gt;" style="shape=step;perimeter=stepPerimeter;whiteSpace=wrap;html=1;fixedSize=1;" vertex="1" parent="1">
          <mxGeometry x="720" y="460" width="80" height="40" as="geometry" />
        </mxCell>
        <mxCell id="A1FotoUGLC98LH-5cCCb-35" value="Optional gateway for egress gateway" style="rounded=0;whiteSpace=wrap;html=1;" vertex="1" parent="1">
          <mxGeometry x="340" y="520" width="120" height="40" as="geometry" />
        </mxCell>
        <mxCell id="A1FotoUGLC98LH-5cCCb-36" value="Optional virtual service" style="rounded=0;whiteSpace=wrap;html=1;" vertex="1" parent="1">
          <mxGeometry x="460" y="520" width="120" height="40" as="geometry" />
        </mxCell>
        <mxCell id="A1FotoUGLC98LH-5cCCb-37" value="Optional destination rule e.g. MTLS or TLS origination" style="rounded=0;whiteSpace=wrap;html=1;" vertex="1" parent="1">
          <mxGeometry x="580" y="520" width="120" height="60" as="geometry" />
        </mxCell>
        <mxCell id="A1FotoUGLC98LH-5cCCb-38" value="Authorisation policy not shown" style="rounded=0;whiteSpace=wrap;html=1;" vertex="1" parent="1">
          <mxGeometry x="120" y="580" width="120" height="40" as="geometry" />
        </mxCell>
      </root>
    </mxGraphModel>
  </diagram>
</mxfile>
